<mxfile host="app.diagrams.net" modified="2022-11-01T03:29:04.676Z" agent="5.0 (Windows NT 10.0; Win64; x64) AppleWebKit/537.36 (KHTML, like Gecko) Chrome/106.0.0.0 Safari/537.36" etag="6l5Uu7yQlSmxHOEOoLmN" version="20.2.7" type="github">
  <diagram name="Page-1" id="e7e014a7-5840-1c2e-5031-d8a46d1fe8dd">
    <mxGraphModel dx="1826" dy="781" grid="1" gridSize="10" guides="1" tooltips="1" connect="1" arrows="1" fold="1" page="1" pageScale="1" pageWidth="1169" pageHeight="826" background="none" math="0" shadow="0">
      <root>
        <mxCell id="0" />
        <mxCell id="1" parent="0" />
        <mxCell id="2" value="Developer Start" style="swimlane;whiteSpace=wrap;startSize=23;" parent="1" vertex="1">
          <mxGeometry x="164.5" y="128" width="280" height="570" as="geometry" />
        </mxCell>
        <mxCell id="5" value="" style="ellipse;shape=startState;fillColor=#000000;strokeColor=#ff0000;" parent="2" vertex="1">
          <mxGeometry x="100" y="40" width="30" height="30" as="geometry" />
        </mxCell>
        <mxCell id="6" value="" style="edgeStyle=elbowEdgeStyle;elbow=horizontal;verticalAlign=bottom;endArrow=open;endSize=8;strokeColor=#FF0000;endFill=1;rounded=0;entryX=0.5;entryY=0;entryDx=0;entryDy=0;" parent="2" source="5" target="8" edge="1">
          <mxGeometry x="100" y="40" as="geometry">
            <mxPoint x="115.5" y="110" as="targetPoint" />
          </mxGeometry>
        </mxCell>
        <mxCell id="8" value="Create PR" style="" parent="2" vertex="1">
          <mxGeometry x="60" y="220" width="110" height="50" as="geometry" />
        </mxCell>
        <mxCell id="10" value="Check Run Start" style="" parent="2" vertex="1">
          <mxGeometry x="60" y="325" width="110" height="50" as="geometry" />
        </mxCell>
        <mxCell id="11" value="" style="endArrow=open;strokeColor=#FF0000;endFill=1;rounded=0" parent="2" source="8" target="10" edge="1">
          <mxGeometry relative="1" as="geometry" />
        </mxCell>
        <mxCell id="3" value="Got Check Result" style="swimlane;whiteSpace=wrap" parent="1" vertex="1">
          <mxGeometry x="445" y="128" width="280" height="570" as="geometry" />
        </mxCell>
        <mxCell id="3_JYAHz-4xH0E_49_Mil-44" value="check succeed？" style="rhombus;fillColor=#ffffc0;strokeColor=#ff0000;" vertex="1" parent="3">
          <mxGeometry x="35" y="395" width="80" height="40" as="geometry" />
        </mxCell>
        <mxCell id="3_JYAHz-4xH0E_49_Mil-43" value="check failed？" style="rhombus;fillColor=#ffffc0;strokeColor=#ff0000;" vertex="1" parent="3">
          <mxGeometry x="35" y="302" width="80" height="40" as="geometry" />
        </mxCell>
        <mxCell id="3_JYAHz-4xH0E_49_Mil-46" value="creat jira button will&#xa;display based on config" style="" vertex="1" parent="3">
          <mxGeometry x="95" y="172" width="110" height="50" as="geometry" />
        </mxCell>
        <mxCell id="3_JYAHz-4xH0E_49_Mil-52" value="" style="endArrow=none;dashed=1;html=1;dashPattern=1 3;strokeWidth=2;rounded=0;labelBackgroundColor=red;fontFamily=Helvetica;fontSize=11;fontColor=default;endSize=8;shape=connector;elbow=horizontal;exitX=0.5;exitY=0;exitDx=0;exitDy=0;entryX=0;entryY=0.5;entryDx=0;entryDy=0;" edge="1" parent="3" source="3_JYAHz-4xH0E_49_Mil-43" target="3_JYAHz-4xH0E_49_Mil-46">
          <mxGeometry width="50" height="50" relative="1" as="geometry">
            <mxPoint x="50" y="282" as="sourcePoint" />
            <mxPoint x="100" y="232" as="targetPoint" />
          </mxGeometry>
        </mxCell>
        <mxCell id="4" value="Rerun Check" style="swimlane;whiteSpace=wrap" parent="1" vertex="1">
          <mxGeometry x="725.5" y="128" width="280" height="570" as="geometry" />
        </mxCell>
        <mxCell id="38" value="" style="ellipse;shape=endState;fillColor=#000000;strokeColor=#ff0000" parent="4" vertex="1">
          <mxGeometry x="130" y="500" width="30" height="30" as="geometry" />
        </mxCell>
        <mxCell id="3_JYAHz-4xH0E_49_Mil-57" value="rerun succeed?" style="rhombus;fillColor=#ffffc0;strokeColor=#ff0000;" vertex="1" parent="4">
          <mxGeometry x="104.5" y="398" width="80" height="40" as="geometry" />
        </mxCell>
        <mxCell id="3_JYAHz-4xH0E_49_Mil-58" value="" style="endArrow=open;strokeColor=#FF0000;endFill=1;rounded=0;entryX=0.5;entryY=0;entryDx=0;entryDy=0;exitX=0.5;exitY=1;exitDx=0;exitDy=0;" edge="1" parent="4" source="3_JYAHz-4xH0E_49_Mil-57" target="38">
          <mxGeometry relative="1" as="geometry">
            <mxPoint x="-154.5" y="332" as="sourcePoint" />
            <mxPoint x="75.5" y="272" as="targetPoint" />
          </mxGeometry>
        </mxCell>
        <mxCell id="3_JYAHz-4xH0E_49_Mil-60" value="rerun failed?" style="rhombus;fillColor=#ffffc0;strokeColor=#ff0000;" vertex="1" parent="4">
          <mxGeometry x="105" y="306" width="80" height="40" as="geometry" />
        </mxCell>
        <mxCell id="3_JYAHz-4xH0E_49_Mil-62" value="creat jira button will&#xa;display based on config" style="" vertex="1" parent="4">
          <mxGeometry x="88" y="172" width="110" height="50" as="geometry" />
        </mxCell>
        <mxCell id="3_JYAHz-4xH0E_49_Mil-63" value="" style="endArrow=none;dashed=1;html=1;dashPattern=1 3;strokeWidth=2;rounded=0;labelBackgroundColor=red;fontFamily=Helvetica;fontSize=11;fontColor=default;endSize=8;shape=connector;elbow=horizontal;exitX=0.5;exitY=0;exitDx=0;exitDy=0;entryX=0.5;entryY=1;entryDx=0;entryDy=0;" edge="1" parent="4" source="3_JYAHz-4xH0E_49_Mil-60" target="3_JYAHz-4xH0E_49_Mil-62">
          <mxGeometry width="50" height="50" relative="1" as="geometry">
            <mxPoint x="140" y="306" as="sourcePoint" />
            <mxPoint x="160.5" y="222" as="targetPoint" />
          </mxGeometry>
        </mxCell>
        <mxCell id="3_JYAHz-4xH0E_49_Mil-82" value="" style="endArrow=open;strokeColor=#FF0000;endFill=1;rounded=0;exitX=0.5;exitY=1;exitDx=0;exitDy=0;entryX=0.5;entryY=0;entryDx=0;entryDy=0;" edge="1" parent="4" source="3_JYAHz-4xH0E_49_Mil-60" target="3_JYAHz-4xH0E_49_Mil-57">
          <mxGeometry relative="1" as="geometry">
            <mxPoint x="-381" y="360" as="sourcePoint" />
            <mxPoint x="-235.5" y="422" as="targetPoint" />
          </mxGeometry>
        </mxCell>
        <mxCell id="20" value="" style="endArrow=open;strokeColor=#FF0000;endFill=1;rounded=0;entryX=0;entryY=0.5;entryDx=0;entryDy=0;exitX=1;exitY=0.5;exitDx=0;exitDy=0;" parent="1" source="10" target="3_JYAHz-4xH0E_49_Mil-43" edge="1">
          <mxGeometry relative="1" as="geometry">
            <mxPoint x="465" y="478" as="targetPoint" />
          </mxGeometry>
        </mxCell>
        <mxCell id="3_JYAHz-4xH0E_49_Mil-47" value="" style="endArrow=open;strokeColor=#FF0000;endFill=1;rounded=0;exitX=1;exitY=0.5;exitDx=0;exitDy=0;" edge="1" parent="1" source="10">
          <mxGeometry relative="1" as="geometry">
            <mxPoint x="344.5" y="505.83042394014956" as="sourcePoint" />
            <mxPoint x="480" y="540" as="targetPoint" />
          </mxGeometry>
        </mxCell>
        <mxCell id="37" value="" style="edgeStyle=none;strokeColor=#FF0000;endArrow=open;endFill=1;rounded=0;exitX=1;exitY=0.5;exitDx=0;exitDy=0;entryX=0;entryY=0.5;entryDx=0;entryDy=0;" parent="1" target="38" edge="1" source="3_JYAHz-4xH0E_49_Mil-44">
          <mxGeometry width="100" height="100" relative="1" as="geometry">
            <mxPoint x="694.5" y="557.5" as="sourcePoint" />
            <mxPoint x="814.5" y="557.8428571428572" as="targetPoint" />
          </mxGeometry>
        </mxCell>
        <mxCell id="3_JYAHz-4xH0E_49_Mil-56" value="" style="endArrow=open;strokeColor=#FF0000;endFill=1;rounded=0;entryX=0;entryY=0.5;entryDx=0;entryDy=0;exitX=1;exitY=0.5;exitDx=0;exitDy=0;" edge="1" parent="1" source="3_JYAHz-4xH0E_49_Mil-43" target="3_JYAHz-4xH0E_49_Mil-57">
          <mxGeometry relative="1" as="geometry">
            <mxPoint x="630" y="458" as="sourcePoint" />
            <mxPoint x="760" y="335" as="targetPoint" />
          </mxGeometry>
        </mxCell>
        <mxCell id="3_JYAHz-4xH0E_49_Mil-73" value="trigger rerun" style="edgeLabel;html=1;align=center;verticalAlign=middle;resizable=0;points=[];fontSize=11;fontFamily=Helvetica;fontColor=default;" vertex="1" connectable="0" parent="3_JYAHz-4xH0E_49_Mil-56">
          <mxGeometry x="0.1791" relative="1" as="geometry">
            <mxPoint as="offset" />
          </mxGeometry>
        </mxCell>
        <mxCell id="3_JYAHz-4xH0E_49_Mil-61" value="" style="endArrow=open;strokeColor=#FF0000;endFill=1;rounded=0;entryX=0;entryY=0.5;entryDx=0;entryDy=0;exitX=1;exitY=0.5;exitDx=0;exitDy=0;" edge="1" parent="1" source="3_JYAHz-4xH0E_49_Mil-43" target="3_JYAHz-4xH0E_49_Mil-60">
          <mxGeometry relative="1" as="geometry">
            <mxPoint x="570" y="460" as="sourcePoint" />
            <mxPoint x="840" y="556" as="targetPoint" />
          </mxGeometry>
        </mxCell>
        <mxCell id="3_JYAHz-4xH0E_49_Mil-72" value="trigger rerun" style="edgeLabel;html=1;align=center;verticalAlign=middle;resizable=0;points=[];fontSize=11;fontFamily=Helvetica;fontColor=default;" vertex="1" connectable="0" parent="3_JYAHz-4xH0E_49_Mil-61">
          <mxGeometry x="0.1133" relative="1" as="geometry">
            <mxPoint x="1" as="offset" />
          </mxGeometry>
        </mxCell>
        <mxCell id="3_JYAHz-4xH0E_49_Mil-64" value="Click Create JIRA button" style="swimlane;whiteSpace=wrap" vertex="1" parent="1">
          <mxGeometry x="1005.5" y="128" width="280" height="570" as="geometry" />
        </mxCell>
        <mxCell id="3_JYAHz-4xH0E_49_Mil-65" value="" style="ellipse;shape=endState;fillColor=#000000;strokeColor=#ff0000" vertex="1" parent="3_JYAHz-4xH0E_49_Mil-64">
          <mxGeometry x="130" y="500" width="30" height="30" as="geometry" />
        </mxCell>
        <mxCell id="3_JYAHz-4xH0E_49_Mil-71" value="JIRA ticket display&#xa;to failed check  link" style="" vertex="1" parent="3_JYAHz-4xH0E_49_Mil-64">
          <mxGeometry x="90" y="172" width="110" height="50" as="geometry" />
        </mxCell>
        <mxCell id="3_JYAHz-4xH0E_49_Mil-80" value="" style="endArrow=open;strokeColor=#FF0000;endFill=1;rounded=0;exitX=0.495;exitY=1.02;exitDx=0;exitDy=0;exitPerimeter=0;entryX=0.5;entryY=0;entryDx=0;entryDy=0;" edge="1" parent="3_JYAHz-4xH0E_49_Mil-64" source="3_JYAHz-4xH0E_49_Mil-71" target="3_JYAHz-4xH0E_49_Mil-65">
          <mxGeometry relative="1" as="geometry">
            <mxPoint x="-661" y="360" as="sourcePoint" />
            <mxPoint x="-515.5" y="422" as="targetPoint" />
          </mxGeometry>
        </mxCell>
        <mxCell id="3_JYAHz-4xH0E_49_Mil-74" value="" style="endArrow=open;strokeColor=#FF0000;endFill=1;rounded=0;" edge="1" parent="1">
          <mxGeometry relative="1" as="geometry">
            <mxPoint x="595" y="300" as="sourcePoint" />
            <mxPoint x="1151" y="300" as="targetPoint" />
            <Array as="points">
              <mxPoint x="595" y="260" />
              <mxPoint x="1151" y="260" />
            </Array>
          </mxGeometry>
        </mxCell>
        <mxCell id="3_JYAHz-4xH0E_49_Mil-75" value="trigger create jira" style="edgeLabel;html=1;align=center;verticalAlign=middle;resizable=0;points=[];fontSize=11;fontFamily=Helvetica;fontColor=default;" vertex="1" connectable="0" parent="3_JYAHz-4xH0E_49_Mil-74">
          <mxGeometry x="-0.1918" y="2" relative="1" as="geometry">
            <mxPoint as="offset" />
          </mxGeometry>
        </mxCell>
        <mxCell id="3_JYAHz-4xH0E_49_Mil-76" value="" style="endArrow=open;strokeColor=#FF0000;endFill=1;rounded=0;entryX=0.018;entryY=0.563;entryDx=0;entryDy=0;exitX=0.981;exitY=0.54;exitDx=0;exitDy=0;exitPerimeter=0;entryPerimeter=0;" edge="1" parent="1" source="3_JYAHz-4xH0E_49_Mil-62" target="3_JYAHz-4xH0E_49_Mil-71">
          <mxGeometry relative="1" as="geometry">
            <mxPoint x="344.5" y="488" as="sourcePoint" />
            <mxPoint x="490" y="460" as="targetPoint" />
          </mxGeometry>
        </mxCell>
        <mxCell id="3_JYAHz-4xH0E_49_Mil-77" value="trigger create jira" style="edgeLabel;html=1;align=center;verticalAlign=middle;resizable=0;points=[];fontSize=11;fontFamily=Helvetica;fontColor=default;" vertex="1" connectable="0" parent="3_JYAHz-4xH0E_49_Mil-76">
          <mxGeometry x="0.1751" relative="1" as="geometry">
            <mxPoint x="1" as="offset" />
          </mxGeometry>
        </mxCell>
        <mxCell id="3_JYAHz-4xH0E_49_Mil-81" value="retry...&#xa;" style="endArrow=open;strokeColor=#FF0000;endFill=1;rounded=0;exitX=0;exitY=0.5;exitDx=0;exitDy=0;" edge="1" parent="1">
          <mxGeometry relative="1" as="geometry">
            <mxPoint x="830.5" y="458" as="sourcePoint" />
            <mxPoint x="831" y="454" as="targetPoint" />
            <Array as="points">
              <mxPoint x="831" y="504" />
              <mxPoint x="780" y="504" />
              <mxPoint x="780" y="454" />
            </Array>
          </mxGeometry>
        </mxCell>
      </root>
    </mxGraphModel>
  </diagram>
</mxfile>
